# xmcd
#
# Track frame offsets: 
#        150
#        10145
#        21627
#        47542
#        58875
#        68405
#        79577
#        102677
#        114490
#
# Disc length: 2139 seconds
#
# Revision: 1
# Processed by: cddbd v1.5.2PL0 Copyright (c) Steve Scherf et al.
# Submitted via: ExactAudioCopyFreeDBPlugin 1.0
#
DISCID=72085909
DTITLE=Grateful Dead - The Grateful Dead
DYEAR=1967
DGENRE=Rock
TTITLE0=The Golden Road (To Unlimited Devotion)
TTITLE1=Beat It On Down The Line
TTITLE2=Good Morning, Little School Girl
TTITLE3=Cold Rain And Snow
TTITLE4=Sitting On Top Of The World
TTITLE5=Cream Puff War
TTITLE6=Morning Dew
TTITLE7=New, New Minglewood Blues
TTITLE8=Viola Lee Blues
EXTD=
EXTT0=
EXTT1=
EXTT2=
EXTT3=
EXTT4=
EXTT5=
EXTT6=
EXTT7=
EXTT8=
PLAYORDER=
